<?xml version="1.0" encoding="UTF-8"?>
<svg version="1.1" xmlns="http://www.w3.org/2000/svg" width="500" height="500" >
<path d="M0 0 C2.14770771 1.59512165 2.90335853 2.45721474 3.37604749 5.11206478 C3.37653455 5.93502877 3.37702161 6.75799275 3.37752342 7.60589504 C3.38534666 8.55688499 3.39316991 9.50787494 3.40123022 10.48768276 C3.39453805 11.53455369 3.38784589 12.58142463 3.38095093 13.66001892 C3.3856309 14.77048617 3.39031087 15.88095343 3.39513266 17.0250712 C3.40714835 20.7654503 3.39759955 24.50546745 3.38818359 28.24584961 C3.3922464 30.9195819 3.39747765 33.5932888 3.40411377 36.26701355 C3.41747357 42.78717227 3.41456328 49.30722755 3.40587585 55.82739037 C3.39910794 61.12573006 3.39817871 66.42404072 3.4014473 71.7223835 C3.40213684 72.85238884 3.40213684 72.85238884 3.40284032 74.00522258 C3.40379948 75.53549906 3.40477212 77.06577553 3.4057581 78.596052 C3.41431872 92.95545708 3.40446764 107.31480476 3.388357 121.67420042 C3.37495592 134.00019558 3.37727886 146.32610598 3.39111328 158.65209961 C3.40716194 172.95764502 3.41349181 187.26314007 3.40427649 201.56869322 C3.40332082 203.09372905 3.40237771 204.61876489 3.4014473 206.14380074 C3.40098447 206.89419092 3.40052164 207.6445811 3.40004479 208.41771038 C3.39745255 213.71031404 3.40183099 219.00288582 3.40888596 224.29548454 C3.41729336 230.74460284 3.41503702 237.19361157 3.39904372 243.64271729 C3.39115022 246.93436387 3.38969789 250.22578953 3.39799118 253.5174408 C3.40614791 257.08281063 3.39595566 260.647661 3.38095093 264.21299744 C3.38764309 265.25763765 3.39433526 266.30227786 3.40123022 267.37857383 C3.39340697 268.33217153 3.38558373 269.28576922 3.37752342 270.26826382 C3.37703637 271.09139016 3.37654931 271.9145165 3.37604749 272.76258606 C2.90413424 275.57038375 1.93740639 276.9376894 0 279 C-3.60050078 280.17407634 -5.27928713 280.32759676 -8.75 278.75 C-11 277 -11 277 -13 274 C-13.251849 271.90832198 -13.251849 271.90832198 -13.25447559 269.44375038 C-13.26322388 268.03386579 -13.26322388 268.03386579 -13.27214891 266.59549868 C-13.26647992 265.04372473 -13.26647992 265.04372473 -13.26069641 263.46060181 C-13.26452196 262.36309078 -13.26834751 261.26557975 -13.27228898 260.13481081 C-13.28265014 256.43829592 -13.27862088 252.74193546 -13.2746582 249.04541016 C-13.27900297 246.40286234 -13.28412046 243.76032607 -13.29014587 241.11778259 C-13.30291232 234.67351203 -13.30468412 228.22928309 -13.30234561 221.78500201 C-13.30056431 216.54769696 -13.30230804 211.31040458 -13.30657005 206.07310104 C-13.30716524 205.32837895 -13.30776043 204.58365687 -13.30837366 203.81636744 C-13.30958538 202.3035677 -13.31079951 200.79076795 -13.31201603 199.27796821 C-13.32289925 185.08212194 -13.3207255 170.8862994 -13.31463119 156.69045179 C-13.30946239 143.69950548 -13.32071509 130.70863417 -13.33972941 117.7177027 C-13.35909525 104.38456016 -13.36736595 91.05145311 -13.36360615 77.71829641 C-13.36169206 70.23039176 -13.36420176 62.74255094 -13.37832069 55.25465775 C-13.39021958 48.87950241 -13.3916563 42.50445017 -13.37953053 36.12929346 C-13.373631 32.87599726 -13.37419137 29.62292927 -13.38453293 26.36963844 C-13.39493396 22.84403749 -13.38695277 19.31894762 -13.3742218 15.79336548 C-13.38159609 14.76331095 -13.38897037 13.73325643 -13.39656812 12.67198813 C-13.3287407 3.77641746 -13.3287407 3.77641746 -10 0 C-6.22941703 -1.25686099 -3.86146303 -0.82745636 0 0 Z " fill="#FFFFFF" transform="translate(256,165)"/>
<path d="M0 0 C2.84780619 2.23206431 3.84997666 3.54992999 5 7 C5.10075068 10.00190255 5.14341487 12.9807223 5.14044189 15.98287964 C5.14341302 16.91296502 5.14638414 17.84305041 5.1494453 18.8013202 C5.15814652 21.93119513 5.15964174 25.06103188 5.16113281 28.19091797 C5.16575993 30.42952558 5.17078444 32.66813239 5.17617798 34.90673828 C5.18931307 40.9976109 5.19574895 47.08847248 5.20018864 53.17935705 C5.20311719 56.98205178 5.20722156 60.78474347 5.21169281 64.58743668 C5.22380229 75.11490914 5.23418447 85.64237981 5.2375679 96.16985893 C5.23778747 96.84361112 5.23800703 97.51736332 5.23823325 98.21153224 C5.23845153 98.88689879 5.23866981 99.56226533 5.2388947 100.25809753 C5.23933817 101.62665486 5.23978473 102.9952122 5.24023438 104.36376953 C5.2404558 105.04262164 5.24067723 105.72147375 5.24090537 106.42089714 C5.24485431 117.42338721 5.26231161 128.42581108 5.2855939 139.42827557 C5.30930159 150.72286972 5.32151142 162.01743179 5.32293582 173.31205475 C5.32398559 179.65420034 5.32993019 185.99625256 5.34775543 192.33837509 C5.3641913 198.30223743 5.36641343 204.26593576 5.35761642 210.22981262 C5.35684368 212.42079735 5.36121986 214.61179074 5.37107468 216.80275345 C5.38372395 219.78975056 5.37795554 222.77616059 5.36749268 225.76315308 C5.37554908 226.63367872 5.38360548 227.50420437 5.39190602 228.40110958 C5.35330478 233.1008453 5.03193152 236.17053836 2 240 C-0.5660206 241.94663632 -1.81116974 242.00770736 -5.0625 241.875 C-8 241 -8 241 -9.65894318 239.52654266 C-11.70837519 235.66542557 -11.4201372 232.00871565 -11.39440918 227.70031738 C-11.40050028 226.74825425 -11.40659139 225.79619111 -11.41286707 224.81527758 C-11.42954998 221.61696572 -11.42471368 218.41904969 -11.41992188 215.22070312 C-11.42725905 212.93106165 -11.43584424 210.64142388 -11.44558716 208.35179138 C-11.46784693 202.12671897 -11.47073166 195.90177874 -11.46883965 189.67667198 C-11.46872017 184.48498557 -11.47727479 179.29332739 -11.48561716 174.10164881 C-11.505968 161.15710945 -11.50699536 148.21265622 -11.49981004 135.26810771 C-11.49423244 124.02244788 -11.51506893 112.7770157 -11.54817051 101.53140908 C-11.58188814 89.98702844 -11.59660345 78.44278481 -11.59245348 66.89835119 C-11.59038155 60.41591464 -11.59593394 53.93370487 -11.62034607 47.4513092 C-11.64253552 41.35764608 -11.64080021 35.26445843 -11.62041855 29.17079353 C-11.61699486 26.93101193 -11.62215557 24.69119879 -11.63640213 22.45145988 C-11.6544749 19.40030583 -11.64193439 16.35078553 -11.62145996 13.29968262 C-11.63397781 12.40747151 -11.64649566 11.5152604 -11.65939283 10.59601259 C-11.57309202 4.62254047 -11.57309202 4.62254047 -8.652565 1.45001984 C-5.40917122 -0.32297548 -3.64256381 -0.62001086 0 0 Z " fill="#FFFFFF" transform="translate(230,188)"/>
<path d="M0 0 C5.26767677 0.75252525 5.26767677 0.75252525 7.5 3.5 C8.50774553 9.44884072 8.63498613 15.2657965 8.60247803 21.28742981 C8.6013656 22.24361621 8.60025317 23.19980261 8.59910703 24.18496436 C8.59408794 27.37309653 8.5817402 30.56115623 8.56933594 33.74926758 C8.56410023 36.04111647 8.55927362 38.33296634 8.55482483 40.62481689 C8.54120485 46.83717892 8.5207609 53.04949974 8.49825954 59.26183534 C8.48438611 63.14142435 8.47175342 67.02101549 8.4595108 70.90060997 C8.42535001 81.64705353 8.3894804 92.39348565 8.34641647 103.13989735 C8.34366843 103.82631512 8.34092038 104.51273289 8.33808906 105.21995119 C8.33533239 105.9079629 8.33257572 106.5959746 8.32973552 107.30483514 C8.32415021 108.69891026 8.3185678 110.0929854 8.31298828 111.48706055 C8.3088345 112.52431399 8.3088345 112.52431399 8.30459681 113.58252206 C8.25999986 124.80909258 8.22898552 136.03565655 8.20378849 147.26228575 C8.17771564 158.79438366 8.14023212 170.32639089 8.09196877 181.85841864 C8.06512369 188.33117966 8.04314731 194.80387141 8.03295135 201.2766819 C8.02304654 207.35638882 7.99904871 213.43587519 7.96401787 219.51548767 C7.95359154 221.75083302 7.94831027 223.98620894 7.94845009 226.2215786 C7.94786215 229.26380119 7.92904065 232.30537016 7.90545654 235.3474884 C7.909622 236.23988387 7.91378746 237.13227934 7.91807914 238.0517171 C7.9080059 238.86438783 7.89793266 239.67705855 7.88755417 240.51435566 C7.88511349 241.21667861 7.88267282 241.91900157 7.88015819 242.64260703 C7.37876576 245.09233138 6.44283106 245.96778397 4.5 247.5 C0.87704882 248.60263732 -0.82169514 248.80146883 -4.3125 247.25 C-6.5 245.5 -6.5 245.5 -7.5 242.5 C-7.59215563 241.15023776 -7.630842 239.79640659 -7.63422108 238.44350624 C-7.63867892 237.61505184 -7.64313676 236.78659744 -7.64772969 235.93303835 C-7.64754533 235.02303273 -7.64736097 234.11302711 -7.64717102 233.17544556 C-7.65084771 232.2086082 -7.6545244 231.24177085 -7.6583125 230.24563539 C-7.66936513 226.99138833 -7.67319583 223.73717319 -7.67700195 220.48291016 C-7.68326528 218.15563352 -7.68991196 215.8283579 -7.69691467 213.50108337 C-7.71433355 207.16848611 -7.72487832 200.8358964 -7.7331202 194.50328112 C-7.73826723 190.54982782 -7.74434302 186.59637689 -7.75063133 182.64292526 C-7.76750003 171.69854589 -7.78213612 160.7541686 -7.78938007 149.80977821 C-7.79128997 146.97019067 -7.79321031 144.13060314 -7.79516602 141.29101562 C-7.79564976 140.58524798 -7.7961335 139.87948034 -7.7966319 139.15232579 C-7.80493643 127.71332576 -7.83028167 116.27443016 -7.86274669 104.83547576 C-7.89580066 93.09339567 -7.91382722 81.3513687 -7.91702431 69.60924184 C-7.91937942 63.01555426 -7.9284001 56.42203183 -7.95348549 49.82838821 C-7.97669348 43.62811138 -7.9810287 37.4281093 -7.97072411 31.22780037 C-7.9702269 28.94973273 -7.97660126 26.67165189 -7.99028015 24.39362526 C-8.00788671 21.28825785 -8.00094803 18.18388857 -7.98774719 15.07852173 C-7.99871644 14.17297755 -8.00968568 13.26743337 -8.02098733 12.33444846 C-7.97886284 8.24187607 -7.80928342 6.023641 -5.6882658 2.43259239 C-3.5 0.5 -3.5 0.5 0 0 Z " fill="#FFFFFF" transform="translate(275.5,181.5)"/>
<path d="M0 0 C5.08643801 2.73885123 8.17004027 5.5101208 10 11 C10.08887255 12.48483665 10.12198215 13.97336827 10.12025452 15.46086121 C10.12162918 16.37371384 10.12300385 17.28656647 10.12442017 18.2270813 C10.12082489 19.22617523 10.11722961 20.22526917 10.11352539 21.25463867 C10.11367142 22.30846237 10.11381744 23.36228607 10.1139679 24.44804382 C10.11327015 27.9380396 10.10548416 31.42798228 10.09765625 34.91796875 C10.09579158 37.33506745 10.09436791 39.75216653 10.09336853 42.16926575 C10.08954721 48.53641805 10.07972018 54.90354761 10.06866455 61.27069092 C10.05844218 67.76574394 10.05386914 74.26080063 10.04882812 80.75585938 C10.03809759 93.50391596 10.02121751 106.25195677 10 119 C3.22190141 117.56286038 -0.28527814 111.4220841 -4.12109375 106.00390625 C-11.1591909 95.13410403 -16.08417501 83.46325855 -16.16113281 70.37719727 C-16.16609772 69.73261566 -16.17106262 69.08803406 -16.17617798 68.42391968 C-16.19070923 66.30473745 -16.19758526 64.18562998 -16.203125 62.06640625 C-16.2088825 60.58576965 -16.21464015 59.10513306 -16.22039795 57.62449646 C-16.23088123 54.52529556 -16.23674181 51.42612041 -16.24023438 48.3269043 C-16.24572326 44.36474375 -16.26977068 40.4029261 -16.29820633 36.44087315 C-16.31686789 33.38416051 -16.3220401 30.32753008 -16.32357025 27.2707653 C-16.32658776 25.81038469 -16.33458574 24.35000521 -16.34775543 22.88968086 C-16.36489576 20.84358981 -16.36291729 18.79833185 -16.35644531 16.75219727 C-16.36009094 15.59035416 -16.36373657 14.42851105 -16.36749268 13.23146057 C-15.8699391 8.85634001 -14.30006617 5.57091328 -11.5 2.1875 C-8.01547845 -0.57107956 -4.23633156 -0.35901115 0 0 Z " fill="#FFFFFF" transform="translate(115,235)"/>
<path d="M0 0 C3.996311 2.11125864 6.41811688 3.75569386 8 8 C8.26069641 11.06446838 8.26069641 11.06446838 8.2746582 14.70532227 C8.2823246 15.7038195 8.2823246 15.7038195 8.29014587 16.7224884 C8.30402885 18.92055295 8.30308476 21.11830308 8.30078125 23.31640625 C8.30467167 24.85375585 8.30900705 26.39110438 8.31376648 27.92845154 C8.32122795 31.15391517 8.32094 34.37926938 8.31567383 37.60473633 C8.30990892 41.7110689 8.32673768 45.81694603 8.3500185 49.92320347 C8.36485872 53.10194969 8.36561317 56.2805892 8.36250877 59.45936394 C8.36301782 60.97142367 8.36817619 62.48349004 8.37832069 63.99551582 C8.50247484 85.10659727 1.10763692 101.8117179 -13.14453125 117.3359375 C-15 119 -15 119 -17 119 C-17.09356217 104.90912611 -17.16377105 90.8183006 -17.20724869 76.72717953 C-17.22811658 70.18397683 -17.25642043 63.64098293 -17.30175781 57.09790039 C-17.34524285 50.78257255 -17.36914311 44.46744546 -17.37950897 38.15197945 C-17.38689547 35.74344282 -17.40131953 33.33491708 -17.42292023 30.92646599 C-17.45198848 27.55091548 -17.45595442 24.17619279 -17.45410156 20.80053711 C-17.46848267 19.80647354 -17.48286377 18.81240997 -17.49768066 17.78822327 C-17.46129563 11.65574601 -16.63979941 7.99351243 -13 3 C-8.68266618 0.0258367 -5.18923924 -0.6486549 0 0 Z " fill="#FFFFFF" transform="translate(396,235)"/>
<path d="M0 0 C2.76015528 2.76015528 2.25384099 4.34446228 2.26069641 8.21188354 C2.26452196 8.8559714 2.26834751 9.50005926 2.27228898 10.16366494 C2.28264508 12.33168539 2.27862198 14.49944229 2.2746582 16.66748047 C2.2790033 18.21791836 2.28418576 19.7683541 2.29014587 21.31878662 C2.30357028 25.53783455 2.30411064 29.75679308 2.30158257 33.97585821 C2.300515 37.49481371 2.30539085 41.01375096 2.310188 44.53270257 C2.32129549 52.83382723 2.32171389 61.13490665 2.31567383 69.43603516 C2.30963446 78.00547105 2.32194123 86.57474274 2.3432439 95.14415061 C2.36084772 102.495371 2.36686311 109.84653908 2.36360615 117.19777977 C2.3617909 121.59098338 2.36445336 125.98406992 2.37832069 130.37725449 C2.39087433 134.50916573 2.38897845 138.64082077 2.37590981 142.77272797 C2.37353892 144.29007935 2.376297 145.80744862 2.38453293 147.32477951 C2.3949596 149.39486861 2.38693371 151.46409157 2.3742218 153.53414917 C2.37438954 154.69301069 2.37455729 155.85187222 2.37473011 157.04585075 C1.96222982 160.29775759 1.280759 161.68390024 -1 164 C-3.83568858 164.66259654 -6.04239226 164.28167693 -9 164 C-12.5395644 160.4604356 -12.12641958 156.61698766 -12.13371277 151.78884888 C-12.13797775 150.51306976 -12.14224274 149.23729065 -12.14663696 147.92285156 C-12.14628746 146.51123044 -12.14582593 145.09960934 -12.14526367 143.68798828 C-12.14825623 142.19961462 -12.15165899 140.71124174 -12.15544128 139.22286987 C-12.16427562 135.1815063 -12.16661916 131.1401639 -12.16725707 127.0987916 C-12.1679679 124.57334453 -12.17010283 122.04790285 -12.17275429 119.52245712 C-12.18200583 110.7104432 -12.18608941 101.8984444 -12.18530273 93.08642578 C-12.18470199 84.87488804 -12.19525373 76.663416 -12.2110464 68.45189488 C-12.22412594 61.39954638 -12.22948646 54.34721935 -12.22884732 47.29485881 C-12.22859246 43.0838489 -12.23143738 38.87289738 -12.24202538 34.66189957 C-12.25171331 30.70072701 -12.25178078 26.73966858 -12.24450874 22.77849197 C-12.24346377 21.32648044 -12.24582064 19.87446177 -12.2518692 18.42246246 C-12.25960405 16.43669558 -12.25373822 14.45088972 -12.24723816 12.46511841 C-12.24778293 11.35494417 -12.24832769 10.24476994 -12.24888897 9.10095406 C-11.9247817 5.06284112 -11.42864219 1.22455045 -8.25 -1.5 C-5.00922175 -2.22017294 -2.99805072 -1.30350031 0 0 Z " fill="#FFFFFF" transform="translate(304,245)"/>
<path d="M0 0 C3.375 0.875 3.375 0.875 5.375 2.875 C5.62668228 5.65834713 5.62668228 5.65834713 5.62896729 9.28343201 C5.63364726 10.28124879 5.63364726 10.28124879 5.63842177 11.29922348 C5.64642889 13.53868255 5.64006771 15.77787268 5.63378906 18.01733398 C5.63649775 19.61865397 5.64005799 21.2199727 5.64440918 22.82128906 C5.65355073 27.17870201 5.64998149 31.53602058 5.64365101 35.89343524 C5.63859925 40.44711235 5.64328024 45.0007812 5.64642334 49.55445862 C5.65006577 57.20371964 5.64525703 64.85294209 5.63574219 72.50219727 C5.62486099 81.35223085 5.62837966 90.20217226 5.639395 99.0522036 C5.64846464 106.64204493 5.64975462 114.23185849 5.64451766 121.82170349 C5.64139568 126.35848601 5.64099478 130.89522518 5.64759064 135.43200493 C5.65335864 139.69765674 5.64937723 143.96318951 5.63780212 148.22882843 C5.63515245 149.79658625 5.63592586 151.36435405 5.64032745 152.93210793 C5.6457724 155.06806969 5.63896184 157.20364723 5.62896729 159.33958435 C5.62821323 160.53623939 5.62745918 161.73289442 5.62668228 162.96581173 C5.375 165.875 5.375 165.875 3.375 168.875 C-3.6671497 169.54568092 -3.6671497 169.54568092 -6.22406101 167.75534725 C-8.28665163 164.9869279 -8.00566203 162.81838231 -8.01268005 159.39100647 C-8.02075836 158.39909173 -8.02075836 158.39909173 -8.02899987 157.38713831 C-8.04333051 155.16683956 -8.03616355 152.94713272 -8.02905273 150.72680664 C-8.03475368 149.1368105 -8.04171686 147.54681845 -8.04985046 145.95683289 C-8.06782797 141.63450698 -8.06660487 137.31238358 -8.06090808 132.99003148 C-8.05782274 129.38403175 -8.06390139 125.77807128 -8.06994683 122.17207712 C-8.08400562 113.66619868 -8.08241962 105.16042065 -8.07104492 96.65454102 C-8.0595629 87.87429129 -8.07363763 79.09434699 -8.1004414 70.31413752 C-8.12258071 62.78029699 -8.12923976 55.24655246 -8.12336498 47.71268171 C-8.11998988 43.21103476 -8.12244701 38.7095836 -8.13961601 34.20796394 C-8.15505493 29.97501366 -8.1511639 25.7425166 -8.13231087 21.50958443 C-8.12861643 19.95514514 -8.13175833 18.40067251 -8.14219666 16.84626389 C-8.15535109 14.72564218 -8.14391117 12.60653321 -8.12620544 10.48597717 C-8.12599616 9.29891709 -8.12578688 8.11185701 -8.12557125 6.88882542 C-7.26855245 1.72891052 -5.19751078 -0.17922451 0 0 Z " fill="#FFFFFF" transform="translate(203.625,240.125)"/>
<path d="M0 0 C5.58661062 5.74179424 7.89631254 12.13898796 8.5625 20 C8.4631633 26.56863905 5.60982187 32.19277768 2.125 37.625 C-3.9055897 43.26229037 -9.58805699 45.61742085 -17.875 45.875 C-25.97704216 45.54143813 -30.67158295 43.4264879 -36.5625 38 C-42.63102526 31.40498168 -43.37574299 25.64452856 -43.16015625 16.82421875 C-42.35334299 9.91636049 -39.49327674 4.61768965 -34.4375 -0.125 C-23.28212435 -8.59348947 -11.397861 -6.99414198 0 0 Z " fill="#FFFFFF" transform="translate(268.75,85.6875)"/>
<path d="M0 0 C3.9375 0.5 3.9375 0.5 5.875 1.8125 C7.80575884 4.87899933 8.0649898 7.51733523 8.07794189 11.04110718 C8.08650711 12.43741112 8.08650711 12.43741112 8.09524536 13.86192322 C8.09636322 14.88121414 8.09748108 15.90050507 8.09863281 16.95068359 C8.10359772 18.02573654 8.10856262 19.10078949 8.11367798 20.2084198 C8.12830663 23.7717655 8.13510245 27.33506669 8.140625 30.8984375 C8.14637543 33.37081911 8.15213318 35.8432007 8.15789795 38.31558228 C8.16840964 43.50238249 8.17425136 48.68916719 8.17773438 53.87597656 C8.18322246 60.52641639 8.20725654 67.17658586 8.23570633 73.82697105 C8.25431659 78.93472902 8.25953743 84.04243758 8.26107025 89.15022659 C8.26410044 91.6022618 8.27214123 94.05429606 8.28525543 96.50629807 C8.30228344 99.93453346 8.30044347 103.36226698 8.29394531 106.79052734 C8.3031601 107.80576981 8.31237488 108.82101227 8.3218689 109.86701965 C8.27062159 118.48476935 8.27062159 118.48476935 4.9375 122.5 C2.3714794 124.44663632 1.12633026 124.50770736 -2.125 124.375 C-5.59343147 123.3418502 -6.24161063 122.54754503 -8.0625 119.5 C-8.44281673 117.241395 -8.44281673 117.241395 -8.45018005 114.7247467 C-8.465037 113.28851707 -8.465037 113.28851707 -8.48019409 111.82327271 C-8.47569244 110.77952484 -8.4711908 109.73577698 -8.46655273 108.66040039 C-8.47341599 107.5559407 -8.48027924 106.45148102 -8.48735046 105.31355286 C-8.5056704 101.65812367 -8.50177339 98.00312155 -8.49609375 94.34765625 C-8.50065305 91.80944173 -8.50595787 89.27122844 -8.51197815 86.73301697 C-8.52091951 81.410903 -8.51870778 76.08894503 -8.50854492 70.7668457 C-8.49706524 64.61939819 -8.51113673 58.47238702 -8.5379414 52.32499701 C-8.56278262 46.40576458 -8.56527426 40.4866676 -8.55882454 34.56738091 C-8.558671 32.0511547 -8.56474206 29.53492022 -8.57711601 27.01872444 C-8.59197356 23.5018164 -8.58138619 19.98587179 -8.56420898 16.46899414 C-8.57387695 15.42727051 -8.58354492 14.38554687 -8.59350586 13.31225586 C-8.54776452 8.8456015 -8.50745113 6.23570916 -6.15834045 2.35154724 C-3.86778712 0.32798305 -3.00749476 -0.1390749 0 0 Z " fill="#FFFFFF" transform="translate(342.0625,277.5)"/>
<path d="M0 0 C3.82669024 0.0479192 3.82669024 0.0479192 6.0625 1.5625 C7.99451309 4.63099138 8.25141186 7.26537942 8.25871277 10.79110718 C8.26297775 11.72197647 8.26724274 12.65284576 8.27163696 13.61192322 C8.27118378 14.63121414 8.27073059 15.65050507 8.27026367 16.70068359 C8.27362228 17.77573654 8.2769809 18.85078949 8.28044128 19.9584198 C8.28996103 23.5217707 8.29189492 27.08507466 8.29296875 30.6484375 C8.29618065 33.12081929 8.29954467 35.59320089 8.30305481 38.06558228 C8.30904866 43.25238485 8.31089445 48.43917076 8.31030273 53.62597656 C8.3102011 60.27636273 8.32385311 66.92660477 8.34107494 73.57697105 C8.35218671 78.68472791 8.35422219 83.79245889 8.35369301 88.90022659 C8.35487437 91.35225416 8.35930487 93.80428237 8.36702538 96.25629807 C8.37680839 99.6844508 8.37395375 103.11237096 8.36791992 106.54052734 C8.37353943 107.55576981 8.37915894 108.57101227 8.38494873 109.61701965 C8.34533111 118.46249665 8.34533111 118.46249665 6.125 122.25 C2.99099115 123.81700442 -0.50655095 124.10164561 -3.875 123.25 C-6.32049406 121.08240906 -7.70388317 119.28481972 -8.24444389 116.01580811 C-8.38979746 113.16372127 -8.40373836 110.3362066 -8.37670898 107.48046875 C-8.38211197 106.39537018 -8.38751495 105.31027161 -8.39308167 104.19229126 C-8.40558427 100.60708301 -8.38906678 97.02267535 -8.37109375 93.4375 C-8.3712487 90.94555621 -8.37273703 88.45361218 -8.37550354 85.96166992 C-8.37706555 80.07091557 -8.35869125 74.18045407 -8.33270174 68.28976345 C-8.31360424 63.59447306 -8.31210345 58.89941813 -8.32104492 54.20410156 C-8.33336726 47.72735556 -8.33103 41.25081705 -8.31538582 34.77407837 C-8.31086806 32.30531214 -8.31053734 29.8365346 -8.31445122 27.36776733 C-8.31736001 23.91811897 -8.30087126 20.4691001 -8.27905273 17.01953125 C-8.28355438 15.99808014 -8.28805603 14.97662903 -8.29269409 13.92422485 C-8.22180837 7.18226141 -7.87684962 0.50818385 0 0 Z " fill="#FFFFFF" transform="translate(160.875,277.75)"/>
<path d="M0 0 C3.375 0.9375 3.375 0.9375 5.375 3.9375 C5.56876294 6.39862924 5.64812137 8.746045 5.63378906 11.20703125 C5.6372937 11.94392181 5.64079834 12.68081238 5.64440918 13.44003296 C5.65321446 15.87678436 5.64738167 18.31324563 5.640625 20.75 C5.641972 22.44246476 5.64391282 24.13492914 5.64642334 25.82739258 C5.64937297 29.37487471 5.64508215 32.92225614 5.63574219 36.46972656 C5.62434772 41.01957718 5.63090806 45.56919185 5.64288712 50.11903381 C5.65011007 53.6139911 5.64781578 57.10889235 5.64263153 60.60385132 C5.64129624 62.28160632 5.64293855 63.95936639 5.64759064 65.63711548 C5.65266304 67.98087059 5.64493578 70.32424223 5.63378906 72.66796875 C5.63783752 73.36312592 5.64188599 74.05828308 5.64605713 74.77450562 C5.61411274 78.39545943 5.44534969 79.83197546 3.375 82.9375 C0 83.875 0 83.875 -3.625 83.9375 C-5.81921387 82.40185547 -5.81921387 82.40185547 -7.625 79.9375 C-8.02008122 77.34008544 -8.17302788 75.16513178 -8.14257812 72.5703125 C-8.1495874 71.8348822 -8.15659668 71.0994519 -8.16381836 70.34173584 C-8.18139881 67.91493783 -8.16977639 65.48930951 -8.15625 63.0625 C-8.15894492 61.3738584 -8.16282735 59.68521832 -8.16784668 57.99658203 C-8.17374176 54.45915946 -8.16517873 50.92214117 -8.14648438 47.38476562 C-8.12369448 42.85161155 -8.13681756 38.31940473 -8.16077423 33.7862854 C-8.17523214 30.29981353 -8.17062633 26.81356605 -8.16026306 23.3270874 C-8.15759574 21.65574023 -8.16086576 19.98437265 -8.17018127 18.31304932 C-8.18034719 15.97638025 -8.16484749 13.64124256 -8.14257812 11.3046875 C-8.15067505 10.61469666 -8.15877197 9.92470581 -8.16711426 9.21380615 C-8.10884734 5.91184086 -7.79177238 4.16509418 -5.81921387 1.47314453 C-3.625 -0.0625 -3.625 -0.0625 0 0 Z " fill="#FFFFFF" transform="translate(183.625,313.0625)"/>
<path d="M0 0 C3.0625 0.3125 3.0625 0.3125 4.72865295 1.36621094 C6.751712 4.31816686 6.48834329 7.31013991 6.46655273 10.765625 C6.47341599 11.52202271 6.48027924 12.27842041 6.48735046 13.05773926 C6.5056611 15.55951678 6.50177546 18.06066982 6.49609375 20.5625 C6.5006532 22.29980677 6.50595806 24.03711174 6.51197815 25.77441406 C6.52091737 29.41609015 6.5184766 33.05754703 6.50854492 36.69921875 C6.49704821 41.37034095 6.51727296 46.04070799 6.54646206 50.71173096 C6.56479025 54.29936544 6.5645385 57.88681777 6.55882454 61.4744873 C6.55867094 63.1969102 6.56474704 64.91934514 6.57711601 66.64172363 C6.59196277 69.04809242 6.58139747 71.45305094 6.56420898 73.859375 C6.57871094 74.93016296 6.57871094 74.93016296 6.59350586 76.02258301 C6.54543355 79.22976631 6.45111006 80.89394171 4.22645569 83.29003906 C1.17066929 84.73388666 -0.74062154 84.21596565 -3.9375 83.3125 C-7.60647532 79.64352468 -7.06714171 75.51018629 -7.08276367 70.51196289 C-7.08612228 69.83666031 -7.0894809 69.16135773 -7.09294128 68.46559143 C-7.10242092 66.23876087 -7.1043928 64.01200572 -7.10546875 61.78515625 C-7.1086831 60.23343373 -7.1120473 58.68171151 -7.11555481 57.12998962 C-7.12153838 53.87937721 -7.12339547 50.62879136 -7.12280273 47.37817383 C-7.12270108 43.2175483 -7.13635961 39.05709332 -7.15357494 34.89650822 C-7.16470461 31.69228842 -7.16672166 28.48810975 -7.16619301 25.2838726 C-7.16737142 23.75011036 -7.17178542 22.216347 -7.17952538 20.68260384 C-7.18934612 18.53575884 -7.18643932 16.38928285 -7.18041992 14.24243164 C-7.18255745 12.41186974 -7.18255745 12.41186974 -7.18473816 10.54432678 C-6.78863713 5.36660696 -5.7666834 0.61347696 0 0 Z " fill="#FFFFFF" transform="translate(318.9375,312.6875)"/>
<path d="M0 0 C2.12985872 3.16181334 2.25716704 5.85399365 2.2746582 9.60717773 C2.28419022 10.73192001 2.29372223 11.85666229 2.30354309 13.01548767 C2.30263168 14.22596268 2.30172028 15.43643768 2.30078125 16.68359375 C2.30506638 17.93125015 2.3093515 19.17890656 2.31376648 20.46437073 C2.31950995 23.1030994 2.32094518 25.74143692 2.31567383 28.38012695 C2.30988072 31.75395143 2.32681052 35.12722665 2.3500185 38.50096035 C2.36833208 41.72850058 2.36456985 44.95601093 2.36328125 48.18359375 C2.372491 49.39204453 2.38170074 50.6004953 2.39118958 51.8455658 C2.38496078 52.97346024 2.37873199 54.10135468 2.37231445 55.26342773 C2.37294388 56.25285873 2.3735733 57.24228973 2.3742218 58.26170349 C1.92819804 61.52539714 0.99748671 63.39284732 -1 66 C-4.4375 67.0625 -4.4375 67.0625 -8 67 C-10.78525355 64.92150873 -11.86842953 63.71715458 -12.50120544 60.26806641 C-12.50137161 59.22312012 -12.50153778 58.17817383 -12.50170898 57.1015625 C-12.51108994 55.91353027 -12.52047089 54.72549805 -12.53013611 53.50146484 C-12.51890213 52.22223145 -12.50766815 50.94299805 -12.49609375 49.625 C-12.4982766 47.65007568 -12.4982766 47.65007568 -12.50050354 45.63525391 C-12.50188658 42.85103323 -12.48934664 40.0673283 -12.46655273 37.28320312 C-12.43816742 33.71865852 -12.44090621 30.15497055 -12.45364285 26.59036255 C-12.46227966 23.18515228 -12.44715088 19.78019583 -12.43359375 16.375 C-12.43799721 14.4561499 -12.43799721 14.4561499 -12.44248962 12.49853516 C-12.42980545 11.31050293 -12.41712128 10.1224707 -12.40405273 8.8984375 C-12.39864975 7.85349121 -12.39324677 6.80854492 -12.38768005 5.73193359 C-11.94366355 2.603004 -11.1994084 1.24122133 -9 -1 C-5.17211056 -2.27596315 -3.63343017 -1.62344752 0 0 Z " fill="#FFFFFF" transform="translate(144,315)"/>
<path d="M0 0 C2.6665248 2.6665248 2.25314153 3.94683937 2.25878906 7.67138672 C2.26509338 8.85957001 2.27139771 10.0477533 2.27789307 11.27194214 C2.2738446 12.56149811 2.26979614 13.85105408 2.265625 15.1796875 C2.26753845 16.49913361 2.2694519 17.81857971 2.27142334 19.17800903 C2.27437468 21.97402618 2.27007814 24.76991565 2.26074219 27.56591797 C2.24936959 31.14605359 2.25589291 34.72588862 2.26788712 38.30601311 C2.27512441 41.05984753 2.27280885 43.81361107 2.26763153 46.56744766 C2.26565159 48.52835536 2.27171759 50.48926583 2.27789307 52.45016479 C2.27158875 53.6446524 2.26528442 54.83914001 2.25878906 56.06982422 C2.25640228 57.64629227 2.25640228 57.64629227 2.25396729 59.25460815 C1.99708233 62.03154009 1.52237285 63.68067093 0 66 C-2.61686988 67.01674562 -5.20615021 67.16030286 -8 67 C-10.22001715 65.49611741 -10.81299258 64.37401485 -12 62 C-12.100769 60.28067136 -12.13836422 58.55747037 -12.14526367 56.83520508 C-12.15164352 55.75680862 -12.15802338 54.67841217 -12.16459656 53.56733704 C-12.16570938 52.39656113 -12.1668222 51.22578522 -12.16796875 50.01953125 C-12.17129715 48.81818039 -12.17462555 47.61682953 -12.17805481 46.3790741 C-12.18312667 43.83108911 -12.18546306 41.28309745 -12.18530273 38.73510742 C-12.18748119 34.84607881 -12.20561227 30.95733745 -12.22460938 27.06835938 C-12.22754488 24.59375097 -12.22952862 22.11914122 -12.23046875 19.64453125 C-12.23765427 18.4838765 -12.24483978 17.32322174 -12.25224304 16.12739563 C-12.23609207 10.38354333 -12.09932906 5.38242694 -10 0 C-6.60391274 -3.03222077 -3.89020014 -1.69139137 0 0 Z " fill="#FFFFFF" transform="translate(369,315)"/>
<path d="M0 0 C3.4375 0.5 3.4375 0.5 5.375 2 C5.725625 2.495 6.07625 2.99 6.4375 3.5 C5.32375 3.45875 4.21 3.4175 3.0625 3.375 C-0.60616025 3.08878141 -0.60616025 3.08878141 -2.5625 5.5 C-3.5525 5.995 -3.5525 5.995 -4.5625 6.5 C-4.5625 85.04 -4.5625 163.58 -4.5625 244.5 C-5.2225 244.5 -5.8825 244.5 -6.5625 244.5 C-8.28431967 241.05636066 -7.71043647 237.08603191 -7.70967102 233.29570007 C-7.71334771 232.32971714 -7.7170244 231.36373421 -7.7208125 230.36847907 C-7.7318813 227.11112595 -7.73569857 223.85380469 -7.73950195 220.59643555 C-7.74576413 218.26930641 -7.7524107 215.94217829 -7.75941467 213.61505127 C-7.77684587 207.2782627 -7.78738193 200.94148168 -7.7956202 194.60467505 C-7.80076521 190.64904953 -7.80684112 186.69342637 -7.81313133 182.73780251 C-7.83000324 171.78917451 -7.84463874 160.84054861 -7.85188007 149.8919096 C-7.85379002 147.05009141 -7.85571034 144.20827323 -7.85766602 141.36645508 C-7.85814976 140.66012193 -7.8586335 139.95378879 -7.8591319 139.22605161 C-7.86743456 127.78052148 -7.89277525 116.33509578 -7.92524669 104.88961127 C-7.95830108 93.14304279 -7.97632734 81.39652742 -7.97952431 69.64991218 C-7.9818796 63.05285628 -7.99090236 56.45596544 -8.01598549 49.85895348 C-8.03919423 43.65458607 -8.04352839 37.45049324 -8.03322411 31.24609375 C-8.0327269 28.9664144 -8.03910134 26.68672187 -8.05278015 24.40708351 C-8.07038675 21.2994733 -8.06344796 18.1928605 -8.05024719 15.08525085 C-8.06121644 14.17902456 -8.07218568 13.27279826 -8.08348733 12.33911055 C-8.04140544 8.24765266 -7.87123382 6.02391175 -5.75467205 2.43217182 C-3.5625 0.5 -3.5625 0.5 0 0 Z " fill="#FFFFFF" transform="translate(275.5625,181.5)"/>
<path d="M0 0 C0 0.66 0 1.32 0 2 C-0.9743355 2.67610667 -1.948671 3.35221334 -2.95253181 4.0488081 C-4.90027305 5.62424182 -5.861388 6.52372406 -6.56706977 8.94847262 C-6.77315701 11.38831199 -6.79778437 13.77062996 -6.75949097 16.21907043 C-6.76870107 17.15030894 -6.77791117 18.08154745 -6.78740036 19.04100531 C-6.81100498 22.16308252 -6.79186204 25.28342988 -6.77294922 28.40551758 C-6.78111849 30.6426907 -6.79192001 32.87985554 -6.80516052 35.11700439 C-6.83364492 41.19313191 -6.82522838 47.26871856 -6.81029272 53.34487367 C-6.80092694 59.69373403 -6.82535026 66.04246113 -6.84622192 72.39128113 C-6.87669136 83.04826141 -6.88628161 93.70505541 -6.87988281 104.36206055 C-6.87334969 115.33802064 -6.87939341 126.31385516 -6.90234375 137.28979492 C-6.9037544 137.9665293 -6.90516506 138.64326368 -6.90661846 139.34050516 C-6.91377298 142.73553663 -6.92117467 146.1305675 -6.92869925 149.52559817 C-6.99078792 177.68374302 -7.0091105 205.84179502 -7 234 C-7.66 234.33 -8.32 234.66 -9 235 C-9.11401742 205.64010574 -9.20252475 176.28022717 -9.25532665 146.92015688 C-9.26158032 143.45539719 -9.26805192 139.99063794 -9.2746582 136.52587891 C-9.27596976 135.83609614 -9.27728131 135.14631337 -9.2786326 134.43562809 C-9.3004002 123.26087118 -9.33982909 112.08624264 -9.38576398 100.91156194 C-9.43249116 89.44869472 -9.45991306 77.98593178 -9.47044247 66.52296662 C-9.47697249 60.08290905 -9.49236608 53.6431428 -9.52865028 47.20317841 C-9.56250386 41.14573144 -9.57307434 35.08869674 -9.56553841 29.03116417 C-9.56691771 26.80426737 -9.57691301 24.57735726 -9.59602737 22.35054207 C-9.62079852 19.3167401 -9.61496295 16.28450746 -9.60127258 13.25067139 C-9.62311889 11.91993485 -9.62311889 11.91993485 -9.64540654 10.56231475 C-9.59409908 6.37417809 -9.57272281 4.64547484 -6.71242046 1.42183304 C-4 0 -4 0 0 0 Z " fill="#FFFFFF" transform="translate(228,188)"/>
<path d="M0 0 C2.94855414 1.53837607 4.54706386 2.6607629 5.6328125 5.87109375 C6.27461984 9.48296695 6.23333646 11.48888203 4.6875 14.875 C1.47429693 18.92125572 1.47429693 18.92125572 -1.0234375 19.3359375 C-7.32220284 19.44056815 -7.32220284 19.44056815 -10.5 17.375 C-13.01964453 13.38556282 -13.3013693 10.39725767 -12.3125 5.8125 C-9.6057208 0.01225885 -6.21783271 -0.76359349 0 0 Z " fill="#FFFFFF" transform="translate(280,152)"/>
<path d="M0 0 C2.3515625 0.48046875 2.3515625 0.48046875 4.9765625 2.54296875 C6.69907103 6.22287334 6.92628331 8.45742308 6.3515625 12.48046875 C4.55593845 15.23375896 3.29901328 17.00674336 0.3515625 18.48046875 C-3.74641007 19.03928319 -5.41716073 18.61752165 -9.0234375 16.48046875 C-12.08795363 12.9781646 -12.08795363 12.9781646 -12.2734375 9.48046875 C-12.0198554 6.69106562 -11.4699958 5.09114141 -10.2734375 2.48046875 C-6.79586355 -0.1691114 -4.29398808 -0.23433268 0 0 Z " fill="#FFFFFF" transform="translate(228.6484375,151.51953125)"/>
<path d="M0 0 C2.4375 1 2.4375 1 4 3 C4.89967847 5.71667616 5.25046198 8.14473346 5 11 C3.23535939 13.85993478 2.00434303 15.49782849 -1 17 C-8.12367491 17.45229682 -8.12367491 17.45229682 -10.9375 16 C-12.63437595 12.80588056 -13.13222615 9.57010618 -13 6 C-10.17958313 -0.31236157 -6.55227181 -0.67468937 0 0 Z " fill="#FFFFFF" transform="translate(304,208)"/>
<path d="M0 0 C3.63525215 2.60789828 4.83397068 4.0702358 5.625 8.5 C4.82883761 12.95850936 3.69186542 14.40783917 0 17 C-3.65951893 17.51361669 -5.97047997 17.43348212 -9.375 16 C-11.8522262 12.95110621 -12.34088605 9.88610101 -12 6 C-8.77794165 0.77804336 -6.10732533 -0.71850886 0 0 Z " fill="#FFFFFF" transform="translate(206,207)"/>
<path d="M0 0 C1.6875 1.0859375 1.6875 1.0859375 3 3 C3.46875 6.25 3.46875 6.25 3.5 10 C3.5309375 11.2375 3.561875 12.475 3.59375 13.75 C3 17 3 17 0.66796875 18.9453125 C-2.7028392 20.27784273 -4.56214715 20.06955422 -8 19 C-10.37184142 15.44223788 -10.29824394 13.71979393 -10.3125 9.5 C-10.32925781 8.3553125 -10.34601563 7.210625 -10.36328125 6.03125 C-10 3 -10 3 -8.69921875 1.1171875 C-5.83458422 -0.76622739 -3.3098863 -0.35463068 0 0 Z " fill="#FFFFFF" transform="translate(323,278)"/>
<path d="M0 0 C2.5 1.5 2.5 1.5 4 4 C4.79710231 8.05193677 4.68780769 10.96828847 2.375 14.4375 C-0.5659132 16.37231132 -2.47650456 16.92809193 -6 17 C-9.50633238 15.64528067 -10.69726232 14.55501909 -12.5 11.25 C-13.18501489 6.79740321 -12.15297005 4.92148116 -10 1 C-6.79158965 -0.60420518 -3.4806013 -0.47462745 0 0 Z " fill="#FFFFFF" transform="translate(326,247)"/>
<path d="M0 0 C2.39286884 2.39286884 2.32050616 3.09447094 2.375 6.375 C2.2967619 9.6192733 2.17175771 10.74554414 0.3125 13.5 C-2.29389937 15.19063743 -3.89539165 15.84855569 -7 16 C-10.81263347 14.93600927 -11.75011007 14.3748349 -14 11 C-14.67540029 3.90829694 -14.67540029 3.90829694 -12.1875 0.5625 C-7.66615003 -2.6670357 -5.04255171 -1.74197241 0 0 Z " fill="#FFFFFF" transform="translate(186,248)"/>
<path d="M0 0 C0.66 0 1.32 0 2 0 C3.17870771 2.35741542 3.12327537 3.75042398 3.12025452 6.37857056 C3.12162918 7.29846268 3.12300385 8.2183548 3.12442017 9.16612244 C3.12082489 10.17816238 3.11722961 11.19020233 3.11352539 12.23291016 C3.11367142 13.2963414 3.11381744 14.35977264 3.1139679 15.45542908 C3.11326919 18.98332737 3.10547871 22.51117339 3.09765625 26.0390625 C3.09579192 28.48001069 3.09436809 30.92095926 3.09336853 33.36190796 C3.08954451 39.79647855 3.0797152 46.23102668 3.06866455 52.66558838 C3.05844795 59.22757666 3.05387038 65.78956856 3.04882812 72.3515625 C3.03809284 85.2343846 3.02120915 98.11719111 3 111 C2.34 110.67 1.68 110.34 1 110 C0.67 73.7 0.34 37.4 0 0 Z " fill="#FFFFFF" transform="translate(347,282)"/>
<path d="M0 0 C0.66 0 1.32 0 2 0 C1.67 36.63 1.34 73.26 1 111 C0.34 111 -0.32 111 -1 111 C-1.02334027 96.82271032 -1.0409183 82.64542361 -1.05181217 68.46811867 C-1.05703962 61.88564006 -1.06413479 55.30317432 -1.07543945 48.72070312 C-1.0862732 42.37299853 -1.09227788 36.02530635 -1.09487724 29.67759323 C-1.09673061 27.25099873 -1.10034953 24.82440494 -1.10573006 22.3978157 C-1.11294692 19.0094987 -1.11399066 15.62123355 -1.11352539 12.23291016 C-1.11712067 11.22087021 -1.12071594 10.20883026 -1.12442017 9.16612244 C-1.1230455 8.24623032 -1.12167084 7.3263382 -1.12025452 6.37857056 C-1.12163721 5.17563071 -1.12163721 5.17563071 -1.12304783 3.94838905 C-1 2 -1 2 0 0 Z " fill="#FFFFFF" transform="translate(380,243)"/>
<path d="M0 0 C1.69140625 1.15234375 1.69140625 1.15234375 3 3 C3.43359375 5.77734375 3.43359375 5.77734375 3.4375 8.9375 C3.45683594 9.97777344 3.47617188 11.01804687 3.49609375 12.08984375 C2.88699213 15.66292019 1.85218813 16.8273946 -1 19 C-4.09857132 19.44265305 -6.01696133 19.66384023 -8.66015625 17.87890625 C-10.6353052 15.10909096 -10.39771718 12.86214301 -10.375 9.5 C-10.38660156 7.78296875 -10.38660156 7.78296875 -10.3984375 6.03125 C-10 3 -10 3 -8.6953125 1.1171875 C-5.83391859 -0.76843153 -3.30770463 -0.35439692 0 0 Z " fill="#FFFFFF" transform="translate(186,278)"/>
<path d="M0 0 C0.33 0 0.66 0 1 0 C1 34.65 1 69.3 1 105 C-3 104 -3 104 -4.25 101.9375 C-4.62125 100.9784375 -4.62125 100.9784375 -5 100 C-3.68 100.66 -2.36 101.32 -1 102 C-1.00222061 100.73688492 -1.00444122 99.47376984 -1.00672913 98.17237854 C-1.02695836 86.29676161 -1.04197108 74.42114814 -1.05181217 62.54551792 C-1.05704156 56.43943631 -1.0641402 50.33336856 -1.07543945 44.22729492 C-1.08626637 38.33994853 -1.09227642 32.45261551 -1.09487724 26.56525993 C-1.09673185 24.31367723 -1.10035313 22.06209531 -1.10573006 19.81051826 C-1.11293789 16.66866573 -1.11399105 13.52686917 -1.11352539 10.38500977 C-1.11712067 9.44418045 -1.12071594 8.50335114 -1.12442017 7.53401184 C-1.11405216 1.11405216 -1.11405216 1.11405216 0 0 Z " fill="#FFFFFF" transform="translate(124,249)"/>
<path d="M0 0 C0.33 0.66 0.66 1.32 1 2 C-0.093125 1.9175 -1.18625 1.835 -2.3125 1.75 C-5.95295707 1.59838403 -5.95295707 1.59838403 -7.70918274 3.65447998 C-9.31179629 6.56655924 -9.36220684 8.46161857 -9.34057617 11.77832031 C-9.34034958 12.9392218 -9.34012299 14.10012329 -9.33988953 15.29620361 C-9.32440567 16.54423767 -9.30892181 17.79227173 -9.29296875 19.078125 C-9.28872391 20.35983582 -9.28447906 21.64154663 -9.28010559 22.96209717 C-9.26867648 26.36199635 -9.23922666 29.76150823 -9.20599365 33.16125488 C-9.17525063 36.63349163 -9.16159126 40.10579124 -9.14648438 43.578125 C-9.11435458 50.3855753 -9.06318203 57.19276903 -9 64 C-9.66 64 -10.32 64 -11 64 C-12.2694966 61.46100681 -12.13387743 59.67747866 -12.14526367 56.83520508 C-12.15164352 55.75680862 -12.15802338 54.67841217 -12.16459656 53.56733704 C-12.16570938 52.39656113 -12.1668222 51.22578522 -12.16796875 50.01953125 C-12.17129715 48.81818039 -12.17462555 47.61682953 -12.17805481 46.3790741 C-12.18312667 43.83108911 -12.18546306 41.28309745 -12.18530273 38.73510742 C-12.18748119 34.84607881 -12.20561227 30.95733745 -12.22460938 27.06835938 C-12.22754488 24.59375097 -12.22952862 22.11914122 -12.23046875 19.64453125 C-12.23765427 18.4838765 -12.24483978 17.32322174 -12.25224304 16.12739563 C-12.23609207 10.38354333 -12.09932906 5.38242694 -10 0 C-6.61400381 -3.02321089 -3.87288526 -1.72128234 0 0 Z " fill="#FFFFFF" transform="translate(369,315)"/>
<path d="M0 0 C1.43746307 2.87492614 0.54449646 4.85328556 0 8 C-0.11103579 10.39798334 -0.17542446 12.798364 -0.20532227 15.19873047 C-0.21522186 15.89211014 -0.22512146 16.58548981 -0.23532104 17.29988098 C-0.26669326 19.57228277 -0.29159647 21.84470541 -0.31640625 24.1171875 C-0.3369968 25.70045488 -0.3579938 27.28371703 -0.37937927 28.86697388 C-0.43438309 33.01956929 -0.48388735 37.17221251 -0.53222656 41.32489014 C-0.58260068 45.56819884 -0.63820342 49.81143873 -0.69335938 54.0546875 C-0.80067536 62.36973335 -0.90217849 70.68483705 -1 79 C-3.42648955 75.36026568 -3.25314353 73.64793779 -3.25878906 69.31298828 C-3.26404602 68.30025345 -3.26404602 68.30025345 -3.26940918 67.26705933 C-3.27821268 65.03470582 -3.27238105 62.80266925 -3.265625 60.5703125 C-3.26697237 59.01716043 -3.2689135 57.46400878 -3.27142334 55.91085815 C-3.27437299 52.65423572 -3.27008329 49.39772297 -3.26074219 46.14111328 C-3.24936666 41.97259311 -3.25589597 37.80433102 -3.26788712 33.63582039 C-3.27512624 30.42729765 -3.27280804 27.21883573 -3.26763153 24.01031113 C-3.26629972 22.47376347 -3.2679263 20.93721025 -3.27259064 19.4006691 C-3.27768756 17.24889846 -3.26990075 15.09754079 -3.25878906 12.94580078 C-3.25640228 11.11071457 -3.25640228 11.11071457 -3.25396729 9.23855591 C-2.98693584 5.83340759 -2.5111228 2.5111228 0 0 Z " fill="#FFFFFF" transform="translate(315,314)"/>
<path d="M0 0 C0.66 0.33 1.32 0.66 2 1 C0 5 0 5 -1.05038452 6.74505615 C-2.29367802 9.69736378 -2.28102816 12.12705109 -2.31884766 15.32910156 C-2.33871735 16.61012756 -2.35858704 17.89115356 -2.37905884 19.21099854 C-2.39093436 20.6042056 -2.40259727 21.9974145 -2.4140625 23.390625 C-2.43277832 24.8198152 -2.45235205 26.24899441 -2.4727478 27.67816162 C-2.52403148 31.43291736 -2.56367716 35.18770892 -2.60089111 38.94262695 C-2.64095449 42.7769453 -2.69203615 46.61111517 -2.7421875 50.4453125 C-2.83890215 57.96343972 -2.92332101 65.4816389 -3 73 C-3.66 73 -4.32 73 -5 73 C-5.06962306 64.62870892 -5.12287344 56.25753957 -5.15543652 47.8860302 C-5.17106807 43.99846009 -5.19226004 40.11108862 -5.22631836 36.22363281 C-5.25900201 32.46943341 -5.27687189 28.71542464 -5.28463173 24.9610939 C-5.29015915 23.53140387 -5.3009529 22.10172384 -5.31719017 20.67211533 C-5.33908159 18.66416416 -5.3402264 16.65601969 -5.34057617 14.64794922 C-5.34723801 13.50655487 -5.35389984 12.36516052 -5.36076355 11.18917847 C-4.84162704 6.59997048 -3.2633067 3.2633067 0 0 Z " fill="#FFFFFF" transform="translate(104,237)"/>
<path d="M0 0 C1.9375 2.1875 1.9375 2.1875 3 5 C2.3125 8.25 2.3125 8.25 1 11 C-1.79870027 12.39935013 -3.90498792 12.25265405 -7 12 C-8.875 10.875 -8.875 10.875 -10 9 C-10.42478586 4.92205575 -10.31282587 3.46923881 -8 0 C-4.62848454 -1.12383849 -3.31972498 -1.16190374 0 0 Z " fill="#FFFFFF" transform="translate(90,239)"/>
<path d="M0 0 C1 1 1 1 1.25 4.375 C1 8 1 8 -0.0625 9.9375 C-3.07884711 11.59162584 -5.63666608 11.30575763 -9 11 C-11.430466 8.569534 -11.76271993 7.4010144 -12 4 C-10.76580368 1.14186115 -9.94636863 -0.52681569 -7.125 -1.9375 C-4.34288635 -2.01932687 -2.48345843 -1.20816897 0 0 Z " fill="#FFFFFF" transform="translate(420,263)"/>
<path d="M0 0 C1.875 1.0625 1.875 1.0625 3 3 C3.4375 6.5 3.4375 6.5 3 10 C1.375 12 1.375 12 -1 13 C-4.67293796 12.77962372 -6.36966546 12.63033454 -9 10 C-9.55021834 3.94759825 -9.55021834 3.94759825 -7.875 1.0625 C-5.11019567 -0.50422245 -3.11811483 -0.38976435 0 0 Z " fill="#FFFFFF" transform="translate(417,211)"/>
<path d="M0 0 C0.66 2.31 1.32 4.62 2 7 C-0.125 9.5625 -0.125 9.5625 -3 12 C-6.75470151 11.9263784 -8.32841161 11.67158839 -11 9 C-11.34490322 4.94738713 -11.30163882 3.45245824 -9 0 C-5.52176885 -1.15941038 -3.54104422 -0.70820884 0 0 Z " fill="#FFFFFF" transform="translate(421,239)"/>
<path d="M0 0 C0.99 0.66 1.98 1.32 3 2 C3.77902622 9.01123596 3.77902622 9.01123596 1.375 12.0625 C-1.83266959 13.32868536 -3.7291021 12.99549067 -7 12 C-9 9 -9 9 -8.8125 5.4375 C-7.57502159 0.20201441 -4.99190069 -0.49919007 0 0 Z " fill="#FFFFFF" transform="translate(91,211)"/>
<path d="M0 0 C0.70125 0.00515625 1.4025 0.0103125 2.125 0.015625 C2.82625 0.01046875 3.5275 0.0053125 4.25 0 C6.125 0.265625 6.125 0.265625 8.125 2.265625 C8.67521834 8.31802675 8.67521834 8.31802675 7 11.203125 C4.23519567 12.76984745 2.24311483 12.65538935 -0.875 12.265625 C-2.75 11.203125 -2.75 11.203125 -3.875 9.265625 C-4.1875 5.703125 -4.1875 5.703125 -3.875 2.265625 C-1.875 0.265625 -1.875 0.265625 0 0 Z " fill="#FFFFFF" transform="translate(85.875,261.734375)"/>
<path d="M0 0 C0.99 0.66 1.98 1.32 3 2 C3.37033222 5.39471203 3.60921702 7.88907484 1.9375 10.9375 C-1.11092516 12.60921702 -3.60528797 12.37033222 -7 12 C-9.31282587 8.53076119 -9.42478586 7.07794425 -9 3 C-6.78229215 -0.69617975 -4.0271794 -0.41949785 0 0 Z " fill="#FFFFFF" transform="translate(96,191)"/>
<path d="M0 0 C1.875 -0.36328125 1.875 -0.36328125 4 -0.3125 C4.70125 -0.30863281 5.4025 -0.30476562 6.125 -0.30078125 C8 0 8 0 10 2 C10.55021834 8.05240175 10.55021834 8.05240175 8.875 10.9375 C6.11019567 12.50422245 4.11811483 12.38976435 1 12 C-0.875 10.875 -0.875 10.875 -2 9 C-2.42478586 4.92205575 -2.31282587 3.46923881 0 0 Z " fill="#FFFFFF" transform="translate(405,191)"/>
<path d="M0 0 C2.15502531 3.23253796 2.46856135 4.25150923 2 8 C0.9375 9.8125 0.9375 9.8125 -1 11 C-4.5625 11.3125 -4.5625 11.3125 -8 11 C-10 9 -10 9 -10.375 5.5625 C-10 2 -10 2 -8.375 0 C-5.16403572 -1.35198496 -3.30053834 -1.00451167 0 0 Z " fill="#FFFFFF" transform="translate(114,155)"/>
<path d="M0 0 C0.8125 3.25 0.8125 3.25 1 7 C-1.0625 9.5625 -1.0625 9.5625 -4 11 C-9.07317073 9.92682927 -9.07317073 9.92682927 -11 8 C-11.375 4.625 -11.375 4.625 -11 1 C-7.16208857 -2.72503168 -4.66089361 -2.05946462 0 0 Z " fill="#FFFFFF" transform="translate(143,293)"/>
<path d="M0 0 C3.5 0.625 3.5 0.625 5.5625 2.8125 C6.5 5.625 6.5 5.625 5.875 8.3125 C4.5 10.625 4.5 10.625 1.5 12.625 C-1.6875 12.25 -1.6875 12.25 -4.5 11.625 C-6.02888746 8.16488627 -6.75669488 6.41219764 -5.5625 2.75 C-3.5 0.625 -3.5 0.625 0 0 Z " fill="#FFFFFF" transform="translate(401.5,171.375)"/>
<path d="M0 0 C3.0625 0.3125 3.0625 0.3125 4.9375 1.4375 C6.59104531 4.19340884 6.45615568 6.16325452 6.0625 9.3125 C4.9375 11.1875 4.9375 11.1875 3.0625 12.3125 C0.0625 12.75 0.0625 12.75 -2.9375 12.3125 C-4.875 10.6875 -4.875 10.6875 -5.9375 8.3125 C-5.64908355 3.50555913 -5.26034464 0.55961113 0 0 Z " fill="#FFFFFF" transform="translate(390.9375,153.6875)"/>
<path d="M0 0 C1.7015625 0.2475 1.7015625 0.2475 3.4375 0.5 C5.75032587 3.96923881 5.86228586 5.42205575 5.4375 9.5 C4.375 11.4375 4.375 11.4375 2.4375 12.5 C-1.25 12.1875 -1.25 12.1875 -4.5625 11.5 C-6.09138746 8.03988627 -6.81919488 6.28719764 -5.625 2.625 C-3.5625 0.5 -3.5625 0.5 0 0 Z " fill="#FFFFFF" transform="translate(100.5625,171.5)"/>
<path d="M0 0 C2 2 2 2 2.375 5.4375 C2 9 2 9 0.375 11 C-2.80165405 12.33753855 -4.72894395 11.94497175 -8 11 C-9.54163175 7.9167365 -9.29747535 5.39121901 -9 2 C-6.17266771 -1.35091234 -4.03066587 -1.37891201 0 0 Z " fill="#FFFFFF" transform="translate(369,292)"/>
<path d="M0 0 C1.093125 0.28875 2.18625 0.5775 3.3125 0.875 C4.74310128 3.73620256 4.69942581 5.71510585 4.3125 8.875 C2.1875 10.875 2.1875 10.875 -0.6875 11.875 C-4 11.0625 -4 11.0625 -6.6875 9.875 C-7.4375 7.125 -7.4375 7.125 -7.6875 3.875 C-5.41672696 0.18499381 -4.35785926 -0.14772404 0 0 Z " fill="#FFFFFF" transform="translate(366.6875,265.125)"/>
<path d="M0 0 C0.66 0.66 1.32 1.32 2 2 C1.8125 5.5 1.8125 5.5 1 9 C-2.22143276 11.14762184 -3.2595467 11.561068 -7 11 C-8.875 9.375 -8.875 9.375 -10 7 C-9.9375 3.875 -9.9375 3.875 -9 1 C-5.97447702 -1.48525102 -3.61516279 -1.14163036 0 0 Z " fill="#FFFFFF" transform="translate(384,139)"/>
<path d="M0 0 C2.8125 1.25 2.8125 1.25 3.8125 2.25 C4 5.6875 4 5.6875 3.8125 9.25 C1.8125 11.25 1.8125 11.25 -1.6875 11.5 C-5.1875 11.25 -5.1875 11.25 -7.1875 9.25 C-7.85826167 3.10135135 -7.85826167 3.10135135 -5.5625 0.1875 C-3.1875 -0.75 -3.1875 -0.75 0 0 Z " fill="#FFFFFF" transform="translate(358.1875,112.75)"/>
<path d="M0 0 C2.05078125 0.03255208 4.1015625 0.06510417 6.15234375 0.09765625 C7.70371161 2.56159344 8.18273504 3.77854771 7.90234375 6.72265625 C7.15234375 9.09765625 7.15234375 9.09765625 5.15234375 11.09765625 C2.0546271 11.42720057 -0.02096648 11.55100226 -2.78515625 10.03515625 C-4.47946798 6.94552898 -3.5871731 4.42548207 -2.84765625 1.09765625 C-1.84765625 0.09765625 -1.84765625 0.09765625 0 0 Z " fill="#FFFFFF" transform="translate(117.84765625,138.90234375)"/>
<path d="M0 0 C0.94552734 0.16242188 0.94552734 0.16242188 1.91015625 0.328125 C3.91015625 3.328125 3.91015625 3.328125 3.59765625 6.953125 C2.91015625 10.328125 2.91015625 10.328125 1.91015625 11.328125 C-4.61526748 11.56541314 -4.61526748 11.56541314 -7.08984375 10.328125 C-7.11673591 8.84905608 -7.13618996 7.36985017 -7.15234375 5.890625 C-7.16394531 5.06691406 -7.17554688 4.24320312 -7.1875 3.39453125 C-6.97874492 -1.0227263 -3.71494776 0.13484384 0 0 Z " fill="#FFFFFF" transform="translate(146.08984375,112.671875)"/>
<path d="M0 0 C3.375 0.6875 3.375 0.6875 4.375 1.6875 C4.5625 5.125 4.5625 5.125 4.375 8.6875 C2.375 10.6875 2.375 10.6875 0.4296875 10.8828125 C-1.58854167 10.81770833 -3.60677083 10.75260417 -5.625 10.6875 C-7.14650158 7.64449684 -6.86399393 5.033415 -6.625 1.6875 C-3.625 -0.3125 -3.625 -0.3125 0 0 Z " fill="#FFFFFF" transform="translate(138.625,265.3125)"/>
<path d="M0 0 C3.0625 0.3125 3.0625 0.3125 5 1.375 C6.67926907 4.43719653 5.74871125 7.00620941 5.0625 10.3125 C2.875 11.5 2.875 11.5 0.0625 12.3125 C-2.75 11.375 -2.75 11.375 -4.9375 9.3125 C-5.375 5.75 -5.375 5.75 -4.9375 2.3125 C-2.9375 0.3125 -2.9375 0.3125 0 0 Z " fill="#FFFFFF" transform="translate(128.9375,127.6875)"/>
<path d="M0 0 C3 0.1875 3 0.1875 5 1.1875 C5.85056945 4.74442677 6.16909807 6.68020578 5 10.1875 C2.23749964 11.56875018 0.05268901 11.37829306 -3 11.1875 C-5 9.1875 -5 9.1875 -5.25 5.6875 C-4.93468205 1.27304872 -4.47748899 0.27984306 0 0 Z " fill="#FFFFFF" transform="translate(370,127.8125)"/>
<path d="M0 0 C3 0.25 3 0.25 5 2.25 C5.33333333 7.58333333 5.33333333 7.58333333 4 10.25 C1.07286212 11.19934202 -0.42831368 11.48176473 -3.3125 10.3125 C-3.869375 9.961875 -4.42625 9.61125 -5 9.25 C-5.125 5.875 -5.125 5.875 -5 2.25 C-3 0.25 -3 0.25 0 0 Z " fill="#FFFFFF" transform="translate(91,283.75)"/>
<path d="M0 0 C2 2 2 2 2.125 5.625 C2.08375 6.73875 2.0425 7.8525 2 9 C-3.41538462 11.21538462 -3.41538462 11.21538462 -6.375 10.125 C-6.91125 9.75375 -7.4475 9.3825 -8 9 C-8.1875 5.625 -8.1875 5.625 -8 2 C-4.77626323 -0.14915785 -3.73296326 -0.38286803 0 0 Z " fill="#FFFFFF" transform="translate(415,284)"/>
<path d="M0 0 C2.31 0.33 4.62 0.66 7 1 C7.33 3.31 7.66 5.62 8 8 C5.8125 9.625 5.8125 9.625 3 11 C0.25 10.5 0.25 10.5 -2 9 C-3 6.625 -3 6.625 -3 4 C-1.5625 1.6875 -1.5625 1.6875 0 0 Z " fill="#FFFFFF" transform="translate(301,81)"/>
<path d="M0 0 C0.928125 0.20625 1.85625 0.4125 2.8125 0.625 C3.4375 3.4375 3.4375 3.4375 3.8125 6.625 C2.8225 8.11 2.8225 8.11 1.8125 9.625 C-1.6875 10 -1.6875 10 -5.1875 9.625 C-7.1875 6.625 -7.1875 6.625 -7 4.0625 C-5.68695131 0.12335392 -3.99778605 -0.47032777 0 0 Z " fill="#FFFFFF" transform="translate(199.1875,81.375)"/>
<path d="M0 0 C0.33 0 0.66 0 1 0 C1.76677886 12.35061658 2.13305432 24.62594802 2 37 C0.078125 36.62890625 0.078125 36.62890625 -2 36 C-3.25 33.9375 -3.25 33.9375 -4 32 C-2.68 32.66 -1.36 33.32 0 34 C0 22.78 0 11.56 0 0 Z " fill="#FFFFFF" transform="translate(123,317)"/>
<path d="M0 0 C1.32 0.33 2.64 0.66 4 1 C4.89674777 3.51089376 5.13172674 4.64535109 4.1875 7.1875 C3 9 3 9 1 10 C-1.9375 10.3125 -1.9375 10.3125 -5 10 C-6.875 8 -6.875 8 -8 6 C-6.35 6 -4.7 6 -3 6 C-2.01 4.02 -1.02 2.04 0 0 Z " fill="#FFFFFF" transform="translate(88,241)"/>
<path d="M0 0 C3.4375 2 3.4375 2 6 4 C5.34 4.66 4.68 5.32 4 6 C3.34 5.34 2.68 4.68 2 4 C-2.09406183 3.30047505 -6.30105447 3.04392673 -9.9921875 5.12109375 C-11.81875835 6.61256735 -11.81875835 6.61256735 -14 9 C-14.66 8.34 -15.32 7.68 -16 7 C-10.76742168 1.47672289 -7.8110309 -0.80803768 0 0 Z " fill="#FFFFFF" transform="translate(396,235)"/>
<path d="M0 0 C0.33 0 0.66 0 1 0 C1.24867947 2.60364409 1.47457902 5.20589894 1.6875 7.8125 C1.79674805 8.91948242 1.79674805 8.91948242 1.90820312 10.04882812 C2.3280231 15.50648777 2.3280231 15.50648777 0.69921875 17.95703125 C-1.90327481 19.55442385 -3.95795036 19.87831801 -7 20 C-9.875 18.5625 -9.875 18.5625 -12 17 C-11.505 15.515 -11.505 15.515 -11 14 C-10.34 14.66 -9.68 15.32 -9 16 C-7.0068433 16.02375926 -7.0068433 16.02375926 -4.875 15.625 C-3.59625 15.41875 -2.3175 15.2125 -1 15 C-0.67 10.05 -0.34 5.1 0 0 Z " fill="#FFFFFF" transform="translate(232,410)"/>
<path d="M0 0 C2 0.66666667 4 1.33333333 6 2 C4.25 6.875 4.25 6.875 2 8 C2 8.99 2 9.98 2 11 C0.68 10.34 -0.64 9.68 -2 9 C-2.125 5.625 -2.125 5.625 -2 2 C-1.34 1.34 -0.68 0.68 0 0 Z " fill="#FFFFFF" transform="translate(134,292)"/>
<path d="M0 0 C0.94875 0.04125 1.8975 0.0825 2.875 0.125 C2.875 1.115 2.875 2.105 2.875 3.125 C0.565 3.785 -1.745 4.445 -4.125 5.125 C-3.795 6.445 -3.465 7.765 -3.125 9.125 C0.34 8.63 0.34 8.63 3.875 8.125 C3.545 9.115 3.215 10.105 2.875 11.125 C0 11.25 0 11.25 -3.125 11.125 C-5.125 9.125 -5.125 9.125 -5.375 5.625 C-5.05328869 1.12104166 -4.56738407 0.18269536 0 0 Z " fill="#FFFFFF" transform="translate(370.125,127.875)"/>
<path d="M0 0 C3 1 3 1 4 3 C4.49512681 7.37362014 4.49223866 9.31955244 1.875 12.9375 C-1.43148796 15.30954571 -3.0239197 15.46233492 -7 15 C-7 14.34 -7 13.68 -7 13 C-4.36 12.67 -1.72 12.34 1 12 C1.33 8.7 1.66 5.4 2 2 C1.34 2 0.68 2 0 2 C0 1.34 0 0.68 0 0 Z " fill="#FFFFFF" transform="translate(207,209)"/>
<path d="M0 0 C0 0.66 0 1.32 0 2 C-1.36125 2.61875 -1.36125 2.61875 -2.75 3.25 C-5.79665618 4.89050718 -7.71126806 6.44718361 -10 9 C-10.33 7.35 -10.66 5.7 -11 4 C-7.26280719 0.48264206 -5.13496308 -0.47767098 0 0 Z " fill="#FFFFFF" transform="translate(279,152)"/>
<path d="M0 0 C0.66 0 1.32 0 2 0 C2 2.64 2 5.28 2 8 C5.465 7.505 5.465 7.505 9 7 C8.67 7.66 8.34 8.32 8 9 C5.07286212 9.94934202 3.57168632 10.23176473 0.6875 9.0625 C0.130625 8.711875 -0.42625 8.36125 -1 8 C-1.04241723 5.66705225 -1.04092937 3.33297433 -1 1 C-0.67 0.67 -0.34 0.34 0 0 Z " fill="#FFFFFF" transform="translate(408,285)"/>
<path d="M0 0 C3.625 0.25 3.625 0.25 5.5625 1.75 C5.913125 2.245 6.26375 2.74 6.625 3.25 C5.51125 3.20875 4.3975 3.1675 3.25 3.125 C-0.41866025 2.83878141 -0.41866025 2.83878141 -2.375 5.25 C-5 5.875 -5 5.875 -7.375 6.25 C-3.85762165 0.28574975 -3.85762165 0.28574975 0 0 Z " fill="#FFFFFF" transform="translate(275.375,181.75)"/>
<path d="M0 0 C1.134375 0.020625 2.26875 0.04125 3.4375 0.0625 C3.4375 0.7225 3.4375 1.3825 3.4375 2.0625 C0.79011084 3.5231285 -0.45698334 4.0625 -3.5625 4.0625 C-3.5625 5.3825 -3.5625 6.7025 -3.5625 8.0625 C-4.2225 8.0625 -4.8825 8.0625 -5.5625 8.0625 C-4.54651535 0.07976343 -4.54651535 0.07976343 0 0 Z " fill="#FFFFFF" transform="translate(408.5625,190.9375)"/>
<path d="M0 0 C3 0.1875 3 0.1875 5 1.1875 C5 2.5075 5 3.8275 5 5.1875 C4.34 5.1875 3.68 5.1875 3 5.1875 C3 4.5275 3 3.8675 3 3.1875 C0.69 3.8475 -1.62 4.5075 -4 5.1875 C-4.33 4.1975 -4.66 3.2075 -5 2.1875 C-3 0.1875 -3 0.1875 0 0 Z " fill="#FFFFFF" transform="translate(129,127.8125)"/>
<path d="M0 0 C-0.33 0.99 -0.66 1.98 -1 3 C-2.65 3.33 -4.3 3.66 -6 4 C-6.33 5.32 -6.66 6.64 -7 8 C-7.66 8 -8.32 8 -9 8 C-8.74438677 5.6568787 -8.40729228 3.32156597 -8 1 C-5.29120665 -0.35439668 -2.99066732 -0.06501451 0 0 Z " fill="#FFFFFF" transform="translate(96,191)"/>
<path d="M0 0 C-3.875 2 -3.875 2 -5 2 C-5 3.65 -5 5.3 -5 7 C-4.01 7.33 -3.02 7.66 -2 8 C-2 8.66 -2 9.32 -2 10 C-3.98 9.34 -5.96 8.68 -8 8 C-8.33 6.02 -8.66 4.04 -9 2 C-5.5647952 -0.29013653 -4.014669 -0.17842973 0 0 Z " fill="#FFFFFF" transform="translate(368,267)"/>
<path d="M0 0 C0 0.33 0 0.66 0 1 C-0.886875 1.2475 -1.77375 1.495 -2.6875 1.75 C-6.10427135 3.03934768 -8.2797748 4.59980129 -11 7 C-11.33 6.01 -11.66 5.02 -12 4 C-8.41084094 -0.78554541 -5.58334594 -0.37222306 0 0 Z " fill="#FFFFFF" transform="translate(326,247)"/>
<path d="M0 0 C4.44393244 -0.59822167 6.5309375 -0.27290909 10.4375 2 C11.7059375 2.99 11.7059375 2.99 13 4 C12.34 4.66 11.68 5.32 11 6 C10.34 5.34 9.68 4.68 9 4 C6.33757179 3.53709779 6.33757179 3.53709779 3.375 3.375 C1.87066406 3.26285156 1.87066406 3.26285156 0.3359375 3.1484375 C-0.43492187 3.09945312 -1.20578125 3.05046875 -2 3 C-1.34 2.01 -0.68 1.02 0 0 Z " fill="#FFFFFF" transform="translate(389,235)"/>
<path d="M0 0 C0.556875 0.226875 1.11375 0.45375 1.6875 0.6875 C0.41303565 3.2364287 -0.77613493 3.49391644 -3.3125 4.6875 C-4.3025 5.3475 -5.2925 6.0075 -6.3125 6.6875 C-6.6425 5.3675 -6.9725 4.0475 -7.3125 2.6875 C-2.88173077 -0.38942308 -2.88173077 -0.38942308 0 0 Z " fill="#FFFFFF" transform="translate(140.3125,313.3125)"/>
<path d="M0 0 C2.125 0.375 2.125 0.375 4 1 C3.525625 1.5775 3.05125 2.155 2.5625 2.75 C1.0515133 4.92582084 0.45963849 6.42602448 0 9 C-0.66 9 -1.32 9 -2 9 C-2.125 5.625 -2.125 5.625 -2 2 C-1.34 1.34 -0.68 0.68 0 0 Z " fill="#FFFFFF" transform="translate(362,292)"/>
<path d="M0 0 C3.375 -0.1875 3.375 -0.1875 7 0 C9 3 9 3 8.625 5.1875 C8.41875 5.785625 8.2125 6.38375 8 7 C7.34 5.68 6.68 4.36 6 3 C2.39007621 3.65585189 2.39007621 3.65585189 -1 5 C-0.67 3.35 -0.34 1.7 0 0 Z " fill="#FFFFFF" transform="translate(141,113)"/>
<path d="M0 0 C0.66 0 1.32 0 2 0 C2 0.66 2 1.32 2 2 C4.31 2 6.62 2 9 2 C9.33 1.34 9.66 0.68 10 0 C10.99 0.33 11.98 0.66 13 1 C11 4 11 4 8.125 4.8125 C4.89875161 5.0060749 3.56927593 4.90316736 1 3 C0.67 2.01 0.34 1.02 0 0 Z " fill="#FFFFFF" transform="translate(313,293)"/>
<path d="M0 0 C0.33 0.66 0.66 1.32 1 2 C-0.3125 4.625 -0.3125 4.625 -2 7 C-2.66 7 -3.32 7 -4 7 C-4.12375 7.61875 -4.2475 8.2375 -4.375 8.875 C-5 11 -5 11 -7 13 C-6.36664937 7.61651963 -3.79089107 3.79089107 0 0 Z " fill="#FFFFFF" transform="translate(234,86)"/>
<path d="M0 0 C2.29013653 3.4352048 2.17842973 4.985331 2 9 C0.68 9 -0.64 9 -2 9 C-2.25 3.375 -2.25 3.375 0 0 Z " fill="#FFFFFF" transform="translate(412,239)"/>
<path d="M0 0 C0.66 0.33 1.32 0.66 2 1 C0.66666667 3.66666667 -0.66666667 6.33333333 -2 9 C-2.99 8.67 -3.98 8.34 -5 8 C-2.25 2.25 -2.25 2.25 0 0 Z " fill="#FFFFFF" transform="translate(104,237)"/>
<path d="M0 0 C0.33 0.99 0.66 1.98 1 3 C-0.28965176 4.37562854 -1.62689293 5.70766393 -3 7 C-3.66 7 -4.32 7 -5 7 C-4.75 4.625 -4.75 4.625 -4 2 C-1.9375 0.6875 -1.9375 0.6875 0 0 Z " fill="#FFFFFF" transform="translate(249,164)"/>
<path d="M0 0 C0.66 0 1.32 0 2 0 C2.36190476 5.42857143 2.36190476 5.42857143 0.8125 7.875 C-1.56036279 9.34781139 -3.25913944 9.22223194 -6 9 C-3 7 -3 7 -1 7 C-0.67 4.69 -0.34 2.38 0 0 Z " fill="#FFFFFF" transform="translate(92,265)"/>
<path d="M0 0 C1.485 0.99 1.485 0.99 3 2 C3.40843923 4.71203652 3.13336867 7.2437142 3 10 C0.99226044 7.99226044 0.00607146 6.63126383 -1 4 C-0.625 1.75 -0.625 1.75 0 0 Z " fill="#FFFFFF" transform="translate(327,249)"/>
<path d="M0 0 C3.71599191 -0.20086443 4.77208445 -0.1519437 8 2 C8 2.66 8 3.32 8 4 C5.36 3.67 2.72 3.34 0 3 C0 2.01 0 1.02 0 0 Z " fill="#FFFFFF" transform="translate(86,211)"/>
<path d="M0 0 C0 0.66 0 1.32 0 2 C-2.31 2.66 -4.62 3.32 -7 4 C-7 2.68 -7 1.36 -7 0 C-4.3333581 -1.33332095 -2.83319697 -0.67102033 0 0 Z " fill="#FFFFFF" transform="translate(201,82)"/>
<path d="M0 0 C0.66 0.33 1.32 0.66 2 1 C0.23762479 4.03520175 -0.61659622 4.89045606 -4.0625 5.875 C-5.031875 5.91625 -6.00125 5.9575 -7 6 C-7.66 5.34 -8.32 4.68 -9 4 C-8.43410156 3.79503906 -7.86820313 3.59007812 -7.28515625 3.37890625 C-6.55167969 3.10949219 -5.81820312 2.84007812 -5.0625 2.5625 C-4.33160156 2.29566406 -3.60070312 2.02882813 -2.84765625 1.75390625 C-1.01694322 1.14613052 -1.01694322 1.14613052 0 0 Z " fill="#FFFFFF" transform="translate(257,439)"/>
<path d="M0 0 C0.33 0.99 0.66 1.98 1 3 C-1.64 3.33 -4.28 3.66 -7 4 C-7 3.01 -7 2.02 -7 1 C-4.53721199 -0.231394 -2.7204945 -0.07159196 0 0 Z " fill="#FFFFFF" transform="translate(185,313)"/>
<path d="M0 0 C-2.55068845 2.35448165 -3.71017358 2.98327924 -7.25 3.1875 C-8.1575 3.125625 -9.065 3.06375 -10 3 C-10.33 2.34 -10.66 1.68 -11 1 C-9.5437328 0.63743142 -8.08488815 0.28520207 -6.625 -0.0625 C-5.40683594 -0.35833984 -5.40683594 -0.35833984 -4.1640625 -0.66015625 C-2 -1 -2 -1 0 0 Z " fill="#FFFFFF" transform="translate(307,222)"/>
<path d="M0 0 C0 0.66 0 1.32 0 2 C-1.32 2 -2.64 2 -4 2 C-4.33 3.98 -4.66 5.96 -5 8 C-5.66 8 -6.32 8 -7 8 C-7.25 5.6875 -7.25 5.6875 -7 3 C-4.51960083 0.51960083 -3.55547616 0 0 0 Z " fill="#FFFFFF" transform="translate(111,154)"/>
<path d="M0 0 C1.09658936 3.28976808 0.79953138 4.71303767 0 8 C0.99 8.33 1.98 8.66 3 9 C2.67 9.66 2.34 10.32 2 11 C0.0625 10.3125 0.0625 10.3125 -2 9 C-2.9375 6.625 -2.9375 6.625 -3 4 C-1.5625 1.6875 -1.5625 1.6875 0 0 Z " fill="#FFFFFF" transform="translate(301,81)"/>
<path d="M0 0 C-5.625 4 -5.625 4 -9 4 C-9 3.34 -9 2.68 -9 2 C-3.375 -1.125 -3.375 -1.125 0 0 Z " fill="#FFFFFF" transform="translate(267,126)"/>
<path d="M0 0 C0.66 0.33 1.32 0.66 2 1 C2 1.66 2 2.32 2 3 C3.98 3 5.96 3 8 3 C7.34 3.66 6.68 4.32 6 5 C3 4.8125 3 4.8125 0 4 C-0.66 3.01 -1.32 2.02 -2 1 C-1.34 0.67 -0.68 0.34 0 0 Z " fill="#FFFFFF" transform="translate(271,425)"/>
<path d="M0 0 C0.391875 0.474375 0.78375 0.94875 1.1875 1.4375 C3.40808374 3.35179633 5.13375709 3.61266988 8 4 C7.67 4.66 7.34 5.32 7 6 C4.125 5.75 4.125 5.75 1 5 C-0.375 2.9375 -0.375 2.9375 -1 1 C-0.67 0.67 -0.34 0.34 0 0 Z " fill="#FFFFFF" transform="translate(221,424)"/>
<path d="M0 0 C-1.39332574 3.36720387 -2.9789286 4.9859524 -6 7 C-6.33 6.34 -6.66 5.68 -7 5 C-2.25 0 -2.25 0 0 0 Z " fill="#FFFFFF" transform="translate(387,346)"/>
<path d="M0 0 C2.5654594 2.5654594 2.54046087 4.47686668 3 8 C1.68 7.67 0.36 7.34 -1 7 C-1.04254356 5.00045254 -1.04080783 2.99958364 -1 1 C-0.67 0.67 -0.34 0.34 0 0 Z " fill="#FFFFFF" transform="translate(87,285)"/>
<path d="M0 0 C0.66 0 1.32 0 2 0 C2.125 2.875 2.125 2.875 2 6 C0 8 0 8 -3.625 8.125 C-4.73875 8.08375 -5.8525 8.0425 -7 8 C-7 7.67 -7 7.34 -7 7 C-4.36 6.34 -1.72 5.68 1 5 C0.67 3.35 0.34 1.7 0 0 Z " fill="#FFFFFF" transform="translate(141,268)"/>
<path d="M0 0 C0.66 0.66 1.32 1.32 2 2 C1.625 4.125 1.625 4.125 1 6 C-0.32 5.67 -1.64 5.34 -3 5 C-2.625 3.0625 -2.625 3.0625 -2 1 C-1.34 0.67 -0.68 0.34 0 0 Z " fill="#FFFFFF" transform="translate(124,141)"/>
<path d="M0 0 C0.66 0.66 1.32 1.32 2 2 C1.75 5.0625 1.75 5.0625 1 8 C0.01 8.495 0.01 8.495 -1 9 C-1.125 2.25 -1.125 2.25 0 0 Z " fill="#FFFFFF" transform="translate(201,82)"/>
<path d="M0 0 C0.66 0 1.32 0 2 0 C2.66 2.64 3.32 5.28 4 8 C1 7 1 7 -0.25 4.5625 C-1 2 -1 2 0 0 Z " fill="#FFFFFF" transform="translate(133,374)"/>
<path d="M0 0 C-0.6875 2.375 -0.6875 2.375 -2 5 C-4.625 6.3125 -4.625 6.3125 -7 7 C-5.84933177 3.5479953 -4.01648928 0 0 0 Z " fill="#FFFFFF" transform="translate(391,340)"/>
<path d="M0 0 C0.66 0.33 1.32 0.66 2 1 C2 3.31 2 5.62 2 8 C1.01 7.67 0.02 7.34 -1 7 C-1.04254356 5.00045254 -1.04080783 2.99958364 -1 1 C-0.67 0.67 -0.34 0.34 0 0 Z " fill="#FFFFFF" transform="translate(369,293)"/>
<path d="M0 0 C1.1446875 1.175625 1.1446875 1.175625 2.3125 2.375 C4.90891805 5.07257717 4.90891805 5.07257717 8 7 C4 7 4 7 2.515625 5.6875 C1.34375 4.125 0.171875 2.5625 -1 1 C-0.67 0.67 -0.34 0.34 0 0 Z " fill="#FFFFFF" transform="translate(231,119)"/>
<path d="M0 0 C1.670625 0.061875 1.670625 0.061875 3.375 0.125 C2.385 1.61 2.385 1.61 1.375 3.125 C-0.935 2.795 -3.245 2.465 -5.625 2.125 C-3.625 0.125 -3.625 0.125 0 0 Z " fill="#FFFFFF" transform="translate(229.625,425.875)"/>
<path d="M0 0 C0 1.98 0 3.96 0 6 C-1.32 5.34 -2.64 4.68 -4 4 C-3.67 3.01 -3.34 2.02 -3 1 C-1 0 -1 0 0 0 Z " fill="#FFFFFF" transform="translate(139,298)"/>
</svg>
